<svg width="24" height="24" viewBox="0 0 24 24" fill="none" xmlns="http://www.w3.org/2000/svg">
<path d="M17.0345 2.73084C16.4555 3.30979 15.9251 3.93728 15.4536 4.60636L15.3046 4.55783C14.4448 4.27702 13.5539 4.10368 12.656 4.04475C12.3856 4.02394 11.3767 4.02394 11.0474 4.04475C10.0524 4.11061 9.28973 4.25969 8.42304 4.56129C8.38837 4.57516 8.35716 4.58556 8.32596 4.59596C7.83715 3.93034 7.29287 3.30632 6.69312 2.73431C9.57054 1.26093 12.9368 1.08412 15.9494 2.24549C16.2718 2.36683 16.5873 2.50897 16.8958 2.6615L17.0345 2.73084Z" fill="#F00500"/>
<path d="M22.401 15.8803C21.9642 17.1249 21.309 18.2793 20.4596 19.2847C19.9986 19.8255 19.4889 20.3212 18.9412 20.7719C17.6585 21.805 16.1608 22.5434 14.5627 22.9317C12.7946 23.3581 10.9503 23.3581 9.18224 22.9317C7.58059 22.5434 6.08641 21.805 4.80371 20.7719C4.25596 20.3212 3.74634 19.8255 3.28526 19.2847C0.841183 16.3968 0.0992938 12.4308 1.34387 8.85661C1.57961 8.19445 1.87428 7.55657 2.22789 6.94988C2.39083 6.67254 2.5919 6.36053 2.68897 6.23226C3.02178 7.66404 3.43086 8.92248 3.5834 9.37662C3.573 9.40089 3.55913 9.42863 3.54527 9.45289C2.73751 11.0892 2.3007 12.6666 2.19669 14.3445C2.19669 14.3653 2.19322 14.3896 2.19322 14.4104C2.16549 14.9131 2.17936 15.1523 2.26256 15.4677C2.52257 16.4558 3.32339 17.5443 4.57836 18.6121C6.63416 20.3594 9.42144 21.6213 11.5327 21.7669C13.7341 21.9159 16.9825 20.6298 19.1457 18.7508C19.4855 18.4492 19.8044 18.1302 20.1026 17.7905C20.3175 17.5409 20.6365 17.111 20.6122 17.111C20.6053 17.111 20.6122 17.1041 20.6261 17.0971C20.6365 17.0902 20.6469 17.0798 20.6399 17.0729C20.6364 17.0694 20.6434 17.059 20.6538 17.0555C20.6642 17.0521 20.6711 17.0451 20.6677 17.0382C20.6642 17.0313 20.6677 17.0243 20.6815 17.0209C20.6919 17.0174 20.6954 17.007 20.6919 17.0001C20.6885 16.9931 20.6919 16.9862 20.6989 16.9862C20.7058 16.9862 20.7127 16.9758 20.7127 16.9689C20.7127 16.9619 20.7197 16.9515 20.7266 16.9515C20.7335 16.9515 20.7405 16.9446 20.7405 16.9377C20.7509 16.9099 20.7682 16.8822 20.7855 16.8579C20.8375 16.7782 21.0455 16.4072 21.0733 16.3448C21.2709 15.8976 21.3957 15.4989 21.4546 15.1003C21.4823 14.9096 21.4997 14.5594 21.4858 14.4762C21.4823 14.4624 21.4823 14.4381 21.4789 14.4C21.4719 14.3306 21.4685 14.2266 21.4615 14.1226C21.4546 13.9666 21.4407 13.7482 21.4303 13.6408C21.2813 12.0668 20.8791 10.7807 20.1164 9.41823C20.0852 9.36622 20.0575 9.31422 20.0402 9.27262C20.0332 9.26222 20.0298 9.25182 20.0263 9.24489C20.1338 8.92248 20.5741 7.5739 20.9242 6.03119L20.9311 6.03812L20.9831 6.10746C21.0733 6.2288 21.3125 6.58934 21.4199 6.76268C21.9088 7.56004 22.2901 8.41633 22.5605 9.31076C23.188 11.4636 23.136 13.7586 22.401 15.8803Z" fill="#F00500"/>
<path d="M17.9011 11.7375C17.8907 11.793 17.7278 11.9594 17.5649 12.0807C17.0864 12.4309 16.2301 12.7567 15.36 12.9127C14.8642 13.0029 14.3685 13.0167 14.2194 12.9439C14.1223 12.8954 14.1085 12.8573 14.1432 12.7325C14.216 12.4725 14.4517 12.1882 14.8192 11.9212C15.0064 11.786 15.7656 11.325 16.1192 11.1308C16.7016 10.8119 17.1731 10.6212 17.4921 10.5761C17.5926 10.5623 17.7139 10.5588 17.7521 10.5761C17.8145 10.6004 17.8838 10.7841 17.9115 11.006C17.9254 11.1239 17.9185 11.6439 17.9011 11.7375Z" fill="black"/>
<path d="M9.73345 12.885C9.71265 12.9266 9.60865 12.9717 9.49078 12.989C9.37291 13.0063 9.01237 12.9959 8.80783 12.9717C8.07287 12.8746 7.29285 12.6493 6.7243 12.3719C6.40536 12.2159 6.17655 12.0599 6.00667 11.89L5.90961 11.7895L5.89921 11.6578C5.88187 11.429 5.88534 11.0684 5.91307 10.9401C5.93041 10.8327 5.96854 10.7287 6.02054 10.6351C6.04828 10.6004 6.04828 10.6004 6.17308 10.6004C6.32562 10.6004 6.45389 10.6247 6.6619 10.6905C7.08831 10.8223 7.72273 11.1412 8.49582 11.6058C9.13371 11.9871 9.37291 12.1743 9.55665 12.4309C9.68145 12.5903 9.76466 12.8157 9.73345 12.885Z" fill="black"/>
<path d="M14.6425 17.7107C14.6425 17.7211 14.6009 17.8875 14.5489 18.0852C14.4969 18.2828 14.4553 18.4422 14.4553 18.4492C14.4171 18.4526 14.3825 18.4561 14.3443 18.4526H14.2334L14.0809 18.8132C13.9977 19.0108 13.9214 19.1945 13.911 19.2223L13.8902 19.2708L13.8174 19.1529L13.7446 19.0351V18.0748L13.7169 18.0817C13.6579 18.0956 13.2384 18.151 13.0547 18.1684C12.2955 18.2446 11.5328 18.2273 10.777 18.1198C10.6557 18.1025 10.5517 18.0886 10.5482 18.0921C10.5448 18.0956 10.5482 18.3174 10.5552 18.5913L10.5656 19.0836L10.5066 19.1737C10.4754 19.2223 10.4442 19.2639 10.4442 19.2673C10.4338 19.2777 10.3992 19.2223 10.3194 19.0628C10.2327 18.8964 10.1703 18.7196 10.1253 18.5358L10.101 18.4353L9.99354 18.4422L9.88607 18.4526L9.85834 18.3244C9.84447 18.255 9.82714 18.1476 9.8202 18.0886L9.8098 17.9777L9.71966 17.8979C9.66766 17.8529 9.61566 17.8078 9.60526 17.8009C9.58793 17.787 9.58099 17.7627 9.58099 17.7419V17.7003L10.0143 17.7038L10.4477 17.7073L10.4616 17.7523L10.4754 17.7974L10.6245 17.8043C10.7077 17.8078 10.9712 17.8147 11.2069 17.8217L11.6403 17.8321L11.7512 17.6587L11.8656 17.4854H12.0112L12.0077 17.1249L12.0043 16.7643L11.8136 16.6811C11.2 16.4107 10.8394 16.1022 10.7042 15.7277C10.6765 15.6515 10.6765 15.6237 10.6696 15.2771C10.6661 14.9339 10.6661 14.9027 10.6904 14.8264C10.7389 14.6531 10.8741 14.5178 11.0474 14.4728C11.1064 14.4554 11.2624 14.4554 12.0805 14.4554L13.0443 14.4589L13.1518 14.5109C13.28 14.5733 13.339 14.6184 13.4118 14.7155C13.495 14.8264 13.5192 14.9131 13.5192 15.1245C13.5192 15.4261 13.4984 15.6861 13.4672 15.7902C13.4222 15.9323 13.3528 16.0675 13.2662 16.1888C13.0928 16.4107 12.7774 16.6326 12.4896 16.7331L12.4064 16.7643L12.4099 17.1283L12.4133 17.4923L12.4896 17.4993L12.5659 17.5062L12.6699 17.6622L12.7704 17.8182H13.235C13.4915 17.8182 13.7169 17.8217 13.7377 17.8251C13.7723 17.8321 13.7793 17.8286 13.8139 17.7697L13.8555 17.7073H14.2542C14.5523 17.6934 14.6425 17.7003 14.6425 17.7107Z" fill="black"/>
<path d="M12.8119 18.7057C12.7461 18.7439 12.701 18.7612 12.6906 18.7543C12.6802 18.7508 12.6317 18.7092 12.5796 18.671L12.486 18.5948L12.389 18.6988C12.1775 18.9276 12.1706 18.938 12.1082 18.9415C12.0111 18.9519 11.9903 18.9345 11.8724 18.7577C11.81 18.6676 11.7615 18.5913 11.7615 18.5913C11.7615 18.5913 11.7164 18.5844 11.6644 18.5809L11.5674 18.5705L11.5223 18.6641L11.4772 18.7577L11.3975 18.7335C11.3351 18.7127 11.2727 18.6884 11.2137 18.6606L11.1097 18.6086V18.411L12.0319 18.4145L12.9541 18.418L12.9575 18.5116C12.961 18.6225 12.9645 18.619 12.8119 18.7057Z" fill="black"/>
<path d="M21.4789 14.4763C21.4755 14.4624 21.4755 14.4381 21.472 14.4C20.64 14.3099 18.2652 14.2544 16.0604 16.0744C16.0604 16.0744 15.3497 12.8157 12.0216 12.8157C8.69348 12.8157 7.45931 16.0744 7.45931 16.0744C5.59418 14.0672 3.09811 14.2128 2.19675 14.3445C2.19675 14.3653 2.19328 14.3896 2.19328 14.4104C2.16554 14.9131 2.17941 15.1523 2.26261 15.4678C2.52262 16.4558 3.32345 17.5444 4.57842 18.6121C6.63422 20.3594 9.4215 21.6213 11.5328 21.7669C13.7342 21.916 16.9825 20.6298 19.1458 18.7508C19.4855 18.4492 19.8045 18.1302 20.1026 17.7905C20.3176 17.5409 20.6365 17.111 20.6122 17.111C20.6053 17.111 20.6122 17.1041 20.6261 17.0971C20.6365 17.0902 20.6469 17.0798 20.64 17.0729C20.6365 17.0694 20.6434 17.059 20.6538 17.0555C20.6642 17.0521 20.6712 17.0451 20.6677 17.0382C20.6642 17.0313 20.6677 17.0243 20.6816 17.0209C20.692 17.0174 20.6954 17.007 20.692 17.0001C20.6885 16.9931 20.692 16.9862 20.6989 16.9862C20.7058 16.9862 20.7128 16.9758 20.7128 16.9689C20.7128 16.9619 20.7197 16.9515 20.7266 16.9515C20.7336 16.9515 20.7405 16.9446 20.7405 16.9377C20.7509 16.9099 20.7682 16.8822 20.7856 16.8579C20.8376 16.7782 21.0456 16.4072 21.0733 16.3448C21.2709 15.8976 21.3957 15.499 21.4547 15.1003C21.4755 14.9096 21.4928 14.5595 21.4789 14.4763ZM12.812 18.7057C12.7461 18.7439 12.7011 18.7612 12.6907 18.7543C12.6803 18.7508 12.6317 18.7092 12.5797 18.6711L12.4861 18.5948L12.3891 18.6988C12.1776 18.9276 12.1706 18.938 12.1082 18.9415C12.0112 18.9519 11.9904 18.9345 11.8725 18.7577C11.8101 18.6676 11.7616 18.5913 11.7616 18.5913C11.7616 18.5913 11.7165 18.5844 11.6645 18.5809L11.5674 18.5705L11.5224 18.6641L11.4773 18.7577L11.3976 18.7335C11.3352 18.7127 11.2728 18.6884 11.2138 18.6607L11.1098 18.6086V18.411L12.032 18.4145L12.9541 18.418L12.9576 18.5116C12.9611 18.6225 12.9645 18.6191 12.812 18.7057ZM14.5454 18.0817C14.4934 18.2793 14.4518 18.4388 14.4518 18.4457C14.4136 18.4492 14.379 18.4526 14.3408 18.4492H14.2299L14.0808 18.8132C13.9976 19.0108 13.9214 19.1945 13.911 19.2223L13.8902 19.2708L13.8174 19.1529L13.7446 19.0351V18.0748L13.7168 18.0817C13.6579 18.0956 13.2384 18.151 13.0547 18.1684C12.2955 18.2446 11.5328 18.2273 10.777 18.1198C10.6557 18.1025 10.5517 18.0886 10.5482 18.0921C10.5447 18.0956 10.5482 18.3174 10.5551 18.5913L10.5655 19.0836L10.5066 19.1737C10.4754 19.2223 10.4442 19.2639 10.4442 19.2673C10.4338 19.2777 10.3991 19.2223 10.3194 19.0628C10.2327 18.8964 10.1703 18.7196 10.1253 18.5358L10.101 18.4353L9.99352 18.4422L9.88605 18.4526L9.85831 18.3244C9.84444 18.255 9.82711 18.1476 9.82018 18.0886L9.80978 17.9777L9.71964 17.898C9.66764 17.8529 9.61564 17.8078 9.60524 17.8009C9.5879 17.787 9.58097 17.7628 9.58097 17.742V17.7004L10.0143 17.7038L10.4477 17.7073L10.4615 17.7524L10.4754 17.7974L10.6245 17.8044C10.7077 17.8078 10.9711 17.8148 11.2069 17.8217L11.6402 17.8321L11.7512 17.6588L11.8656 17.4854H12.0112L12.0077 17.1249L12.0042 16.7643L11.8136 16.6811C11.2 16.4107 10.8394 16.1022 10.7042 15.7278C10.6765 15.6515 10.6765 15.6238 10.6695 15.2771C10.6661 14.9339 10.6661 14.9027 10.6903 14.8264C10.7389 14.6531 10.8741 14.5179 11.0474 14.4728C11.1063 14.4555 11.2624 14.4555 12.0805 14.4555L13.0443 14.4589L13.1517 14.5109C13.28 14.5733 13.3389 14.6184 13.4118 14.7155C13.495 14.8264 13.5192 14.9131 13.5192 15.1245C13.5192 15.4262 13.4984 15.6862 13.4672 15.7902C13.4222 15.9323 13.3528 16.0675 13.2661 16.1888C13.0928 16.4107 12.7773 16.6326 12.4896 16.7331L12.4064 16.7643L12.4099 17.1283L12.4133 17.4924L12.4896 17.4993L12.5659 17.5062L12.6699 17.6622L12.7704 17.8182H13.2349C13.4915 17.8182 13.7168 17.8217 13.7376 17.8252C13.7723 17.8321 13.7792 17.8286 13.8139 17.7697L13.8555 17.7073H14.2542C14.5627 17.7073 14.6529 17.7108 14.6529 17.7212C14.6425 17.7177 14.5974 17.8876 14.5454 18.0817Z" fill="white"/>
<path d="M21.4511 14.1226C21.4442 13.9666 21.4303 13.7482 21.4199 13.6408C21.2709 12.0668 20.8687 10.7807 20.106 9.41823C20.0748 9.36623 20.0471 9.31422 20.0298 9.27262C20.0228 9.26222 20.0194 9.25182 20.0159 9.24489C20.1234 8.92248 20.5636 7.5739 20.9138 6.03119C21.3887 3.93726 21.6904 1.48972 20.7682 0.754764C20.7682 0.754764 19.1735 0.636894 17.0379 2.73082C16.459 3.30978 15.9286 3.93726 15.4571 4.60635L15.308 4.55781C14.4483 4.277 13.5573 4.10367 12.6594 4.04473C12.389 4.02393 11.3802 4.02393 11.0508 4.04473C10.0559 4.1106 9.29317 4.25967 8.42648 4.56128C8.39181 4.57515 8.36061 4.58555 8.32941 4.59595C7.8406 3.93033 7.29631 3.30631 6.69656 2.73429C4.47436 0.629961 2.82071 0.751297 2.82071 0.751297C1.84308 1.51052 2.17589 4.069 2.68204 6.23226C3.01485 7.66404 3.42393 8.92248 3.57647 9.37663C3.56607 9.40089 3.5522 9.42863 3.53833 9.45289C2.73058 11.0892 2.29376 12.6666 2.18976 14.3445C3.09459 14.2128 5.5872 14.0637 7.45579 16.0744C7.45579 16.0744 8.68996 12.8157 12.0181 12.8157C15.3462 12.8157 16.0568 16.0744 16.0568 16.0744C18.2617 14.2544 20.6365 14.3133 21.4685 14.4C21.465 14.3306 21.4581 14.2266 21.4511 14.1226ZM4.23169 8.06965C4.23169 8.06965 2.93511 4.82822 3.26792 2.97697C3.32339 2.66496 3.4274 2.39108 3.59034 2.18307C3.59034 2.18307 5.06024 2.32868 7.43152 4.96343C7.43152 4.96343 6.98084 5.18183 6.37762 5.64638C6.37762 5.64638 6.37415 5.64985 6.37068 5.64985C5.71546 6.15253 4.87651 6.94989 4.23169 8.06965ZM9.73345 12.885C9.71265 12.9266 9.60865 12.9717 9.49078 12.989C9.37291 13.0063 9.01237 12.9959 8.80783 12.9717C8.07287 12.8746 7.29285 12.6493 6.7243 12.3719C6.40535 12.2159 6.17655 12.0599 6.00667 11.89L5.90961 11.7895L5.8992 11.6578C5.88187 11.429 5.88534 11.0684 5.91307 10.9401C5.93041 10.8327 5.96854 10.7287 6.02054 10.6351C6.04828 10.6004 6.04828 10.6004 6.17308 10.6004C6.32562 10.6004 6.45389 10.6247 6.66189 10.6905C7.08831 10.8223 7.72273 11.1412 8.49582 11.6058C9.1337 11.9871 9.37291 12.1743 9.55665 12.4309C9.68145 12.5903 9.76465 12.8157 9.73345 12.885ZM17.9012 11.7375C17.8908 11.793 17.7278 11.9594 17.5649 12.0807C17.0865 12.4309 16.2302 12.7567 15.36 12.9127C14.8643 13.0029 14.3685 13.0167 14.2195 12.9439C14.1224 12.8954 14.1085 12.8573 14.1432 12.7325C14.216 12.4725 14.4517 12.1882 14.8192 11.9212C15.0064 11.786 15.7656 11.325 16.1192 11.1308C16.7017 10.8119 17.1731 10.6212 17.4921 10.5761C17.5926 10.5623 17.714 10.5588 17.7521 10.5761C17.8145 10.6004 17.8838 10.7841 17.9116 11.006C17.9254 11.1239 17.9185 11.6439 17.9012 11.7375ZM17.3257 5.64638L17.3188 5.64291C16.7363 5.17837 16.2995 4.95996 16.2995 4.95996C18.5911 2.32521 20.009 2.17961 20.009 2.17961C20.165 2.39108 20.2655 2.66149 20.321 2.9735C20.6434 4.82475 19.3919 8.06965 19.3919 8.06965C18.8684 7.13709 18.1646 6.312 17.3257 5.64638Z" fill="#FFA409"/>
<path d="M20.3245 2.97349C20.0541 2.93882 18.7748 2.93189 17.3257 5.64637L17.3188 5.6429C16.7364 5.17835 16.2996 4.95995 16.2996 4.95995C18.5911 2.3252 20.009 2.1796 20.009 2.1796C20.1685 2.39107 20.269 2.66148 20.3245 2.97349Z" fill="#FF9300"/>
<path d="M19.3955 8.06962C18.8685 7.1336 18.1682 6.31197 17.3258 5.64635C18.7749 2.93187 20.0507 2.9388 20.3246 2.97347C20.647 4.82819 19.3955 8.06962 19.3955 8.06962Z" fill="#FF8300"/>
<path d="M20.3765 2.98388C20.3592 2.98041 20.3419 2.97695 20.3245 2.97348L20.3765 2.98388Z" fill="#FF8300"/>
<path d="M7.4314 4.95995C7.4314 4.95995 6.98072 5.17835 6.37751 5.6429C6.37751 5.6429 6.37404 5.64637 6.37057 5.64637C4.86946 2.92842 3.54862 2.93882 3.26434 2.97349C3.31981 2.66148 3.42382 2.3876 3.58675 2.1796C3.59022 2.1796 5.06013 2.3252 7.4314 4.95995Z" fill="#FF9300"/>
<path d="M6.37411 5.64635C5.71543 6.1525 4.87647 6.94639 4.23165 8.06962C4.23165 8.06962 2.93508 4.82819 3.26789 2.97347C3.5487 2.9388 4.873 2.93187 6.37411 5.64635Z" fill="#FF8300"/>
<path d="M3.26787 2.97348C3.25054 2.97695 3.22974 2.98041 3.2124 2.98388L3.26787 2.97348Z" fill="#FF8300"/>
<path d="M15.887 9.86892C15.887 9.86892 14.7776 9.93825 14.9163 9.07156C15.055 8.20487 15.9217 8.10086 16.1643 8.13553C16.407 8.1702 17.3777 8.51688 17.2044 9.2449C17.031 9.97292 16.7883 9.83425 16.6497 9.86892C16.511 9.90358 15.887 9.86892 15.887 9.86892Z" fill="white"/>
<path d="M7.70535 9.86892C7.70535 9.86892 6.59598 9.93825 6.73465 9.07156C6.87332 8.20487 7.74002 8.10086 7.98269 8.13553C8.22536 8.1702 9.19606 8.51688 9.02272 9.2449C8.84938 9.97292 8.60671 9.83425 8.46804 9.86892C8.32937 9.90358 7.70535 9.86892 7.70535 9.86892Z" fill="white"/>
</svg>
